<?xml version="1.0" encoding="UTF-8"?>
<svg id="Layer_1" xmlns="http://www.w3.org/2000/svg" version="1.1" viewBox="0 0 700 700">
  <!-- Generator: Adobe Illustrator 30.5.1, SVG Export Plug-In . SVG Version: 2.1.4 Build 3)  -->
  <g>
    <g>
      <polygon points="497.2 305.8 460.4 305.8 460.4 339.9 421 381.3 280 381.3 239.6 321.4 239.6 305.8 202.8 305.8 202.8 699.3 239.6 699.3 239.6 536.5 280 495.1 421 495.1 460.4 554.5 460.4 699.3 497.2 699.3 497.2 305.8"/>
      <polygon points="420 579 420 560 400.5 531 295 531 279.5 547.5 279.5 699.3 303.8 699.3 420 579"/>
      <polygon points="420 630.5 353.7 699.3 420 699.3 420 630.5"/>
      <polygon points="279.5 312.9 279.5 316.4 299 345.4 405 345.4 420 328.9 420 305.8 286.4 305.8 279.5 312.9"/>
    </g>
    <polyline points=".2 186.8 701.6 186.8 701.6 293.1 .2 293.1"/>
    <polyline points=".2 107.5 701.6 107.5 701.6 176.8 .2 176.8"/>
    <polyline points=".2 53.6 701.6 53.6 701.6 99 .2 99"/>
    <polyline points=".2 13.8 701.6 13.8 701.6 45.7 .2 45.7"/>
    <polyline points=".2 .3 701.6 .3 701.6 6.9 .2 6.9"/>
  </g>
  <polyline points="486.9 305.8 699.5 305.8 699.5 699.3 486.9 699.3"/>
  <polyline points="-1.2 305.8 211.4 305.8 211.4 699.3 -1.2 699.3"/>
</svg>